<svg width="480" height="480" viewBox="0 0 480 480" fill="none" xmlns="http://www.w3.org/2000/svg">
<g id="Name=Globe" clip-path="url(#clip0_11334_33629)">
<path id="Vector" d="M477 240.5C477 371.115 371.115 477 240.5 477M477 240.5C477 109.885 371.115 4 240.5 4M477 240.5L4.40033 240.5M240.5 477C109.885 477 4 371.115 4 240.5C4 109.885 109.885 4 240.5 4M240.5 477V4.40081M240.5 477C305.808 477 358.75 371.115 358.75 240.5C358.75 109.885 305.808 4 240.5 4M240.5 477C175.192 477 122.25 371.115 122.25 240.5C122.25 109.885 175.192 4 240.5 4" stroke="#FFFAEE" stroke-width="7" stroke-miterlimit="10"/>
</g>
<defs>
<clipPath id="clip0_11334_33629">
<rect width="480" height="480" fill="white"/>
</clipPath>
</defs>
</svg>
