<svg width="480" height="480" viewBox="0 0 480 480" fill="none" xmlns="http://www.w3.org/2000/svg">
<g id="Name=LG_Ven Diagram">
<g id="Vector">
<path d="M239.803 476C309.709 476 366.38 423.128 366.38 357.908C366.38 292.688 309.709 239.816 239.803 239.816C169.897 239.816 113.227 292.688 113.227 357.908C113.227 423.128 169.897 476 239.803 476Z" stroke="#FFFAEE" stroke-width="4" stroke-miterlimit="10"/>
<path d="M239.803 240.184C309.709 240.184 366.38 187.312 366.38 122.092C366.38 56.8716 309.709 4 239.803 4C169.897 4 113.227 56.8716 113.227 122.092C113.227 187.312 169.897 240.184 239.803 240.184Z" stroke="#FFFAEE" stroke-width="4" stroke-miterlimit="10"/>
<path d="M349.424 299.046C419.33 299.046 476 246.175 476 180.954C476 115.734 419.33 62.8622 349.424 62.8622C279.517 62.8622 222.847 115.734 222.847 180.954C222.847 246.175 279.517 299.046 349.424 299.046Z" stroke="#FFFAEE" stroke-width="4" stroke-miterlimit="10"/>
<path d="M130.576 417.138C200.483 417.138 257.153 364.266 257.153 299.046C257.153 233.825 200.483 180.954 130.576 180.954C60.6701 180.954 4 233.825 4 299.046C4 364.266 60.6701 417.138 130.576 417.138Z" stroke="#FFFAEE" stroke-width="4" stroke-miterlimit="10"/>
<path d="M130.576 299.046C200.483 299.046 257.153 246.175 257.153 180.954C257.153 115.734 200.483 62.8622 130.576 62.8622C60.6701 62.8622 4 115.734 4 180.954C4 246.175 60.6701 299.046 130.576 299.046Z" stroke="#FFFAEE" stroke-width="4" stroke-miterlimit="10"/>
<path d="M349.424 417.138C419.33 417.138 476 364.266 476 299.046C476 233.825 419.33 180.954 349.424 180.954C279.517 180.954 222.847 233.825 222.847 299.046C222.847 364.266 279.517 417.138 349.424 417.138Z" stroke="#FFFAEE" stroke-width="4" stroke-miterlimit="10"/>
</g>
</g>
</svg>
