<svg width="480" height="141" viewBox="0 0 480 141" fill="none" xmlns="http://www.w3.org/2000/svg">
<g filter="url(#filter0_ii_20231_42951)">
<path opacity="0.9" fill-rule="evenodd" clip-rule="evenodd" d="M42.7255 21.6947C59.7612 11.899 78.7296 7.70166 96.1272 9.87011C113.904 12.0851 127.951 20.6546 135.686 33.9909C143.422 47.3271 143.842 63.727 136.883 80.1618C130.07 96.2538 116.934 110.508 99.8983 120.304C85.7934 128.414 70.369 132.687 55.6043 132.687C52.5335 132.687 49.4916 132.501 46.4967 132.129C28.7196 129.914 14.6732 121.345 6.93765 108.009C-0.797843 94.6728 -1.21835 78.2728 5.74056 61.838C12.5537 45.7461 25.6898 31.4905 42.7255 21.6947ZM53.6973 26.1233C53.4536 26.238 53.2108 26.3554 52.9675 26.4727C48.1425 30.0732 43.5916 35.1417 39.1179 42.1295C23.3374 66.7789 27.2545 106.503 47.7462 118.409C52.3409 121.079 57.1406 122.596 61.7877 123.147C49.3686 114.829 38.8201 94.8363 38.8201 70.9242H38.8262C38.8275 52.4647 45.1161 36.3423 53.6973 26.1233ZM33.5765 39.2594C12.507 57.7349 4.28935 84.0121 15.3913 103.16C20.51 111.992 29.1364 118.284 40.13 121.355C30.5729 114.692 22.415 103.276 20.523 90.5449C18.3221 75.7436 21.9831 59.7682 29.777 45.5599C30.9949 43.3411 32.2626 41.2414 33.5765 39.2594ZM48.2488 75.0809C48.7276 87.0974 51.2786 98.2245 55.5579 106.765C58.9498 113.537 63.194 118.044 67.5726 119.66C67.0939 107.643 63.9586 97.0971 59.6793 88.5569C56.2873 81.7843 52.6273 76.6971 48.2488 75.0809ZM94.0609 75.0809C89.6823 76.697 86.0274 81.7783 82.6296 88.5569C78.3503 97.097 75.215 107.637 74.7362 119.66C79.1149 118.044 83.3532 113.543 86.751 106.765C91.0303 98.2245 93.5822 87.1032 94.0609 75.0809ZM81.0599 18.6602C80.8779 18.6751 80.6957 18.6896 80.5134 18.7058C92.9325 27.0224 103.482 47.0132 103.484 70.9242L103.48 71.6635C103.315 89.7602 97.1172 105.549 88.6899 115.636C94.4101 111.775 99.4564 105.787 106.753 92.6904C116.561 75.0869 114.792 39.9033 96.956 23.9684C91.864 19.4142 84.8408 18.7789 81.0599 18.6602ZM71.1785 34.4263C69.1917 57.3282 61.8564 70.713 47.9235 70.9268C62.5493 71.1625 69.4533 86.3711 70.8704 111.532C72.3929 86.3694 79.7479 71.1604 94.3828 70.9268C80.5617 70.7061 73.2332 57.1301 71.1785 34.4263ZM102.419 20.4692C121.628 33.2666 130.26 67.3723 112.76 96.2309C111.299 98.8936 109.657 101.436 107.866 103.846C116.952 96.2438 123.984 87.0508 128.208 77.0809C134.046 63.2854 133.777 49.6702 127.443 38.7465C122.134 29.5918 113.203 23.4305 102.419 20.4692ZM67.5675 22.2007C63.1889 23.8169 58.9505 28.3166 55.5527 35.095C51.2733 43.6351 48.7215 54.7571 48.2428 66.7796C52.6214 65.1634 56.2763 60.082 59.6741 53.3035C63.9535 44.7634 67.0887 34.2231 67.5675 22.2007ZM74.7362 22.2007C75.215 34.2173 78.3503 44.7634 82.6296 53.3035C86.0216 60.0763 89.6823 65.1634 94.0609 66.7796C93.5822 54.7631 91.0303 43.636 86.751 35.0959C83.359 28.3231 79.1149 23.8169 74.7362 22.2007Z" fill="#FFFAEE" fill-opacity="0.2"/>
<g opacity="0.9">
<path d="M163.995 52.552C169.216 57.3699 176.023 59.7732 184.409 59.7732C192.795 59.7732 199.584 57.3643 204.772 52.552C209.124 48.5181 211.641 43.5979 212.345 37.8027V77.4087H229.145L229.157 53.3929H229.361C232.867 57.7052 237.849 59.8641 244.315 59.8641C251.258 59.8641 256.826 57.5518 261.019 52.9213C264.729 48.8249 266.797 43.507 267.223 36.9618C267.78 43.1945 270.297 48.4045 274.785 52.5918C279.904 57.3756 286.728 59.7676 295.256 59.7676C301.647 59.7676 307.17 58.3642 311.959 55.3587C316.885 52.2679 320.09 47.8931 321.345 43.524V58.3642H338.151V31.8201C338.151 28.8202 339.009 26.3828 340.731 24.5022C342.447 22.6273 344.685 21.6899 347.435 21.6899C350.185 21.6899 352.162 22.4569 353.571 23.9852C354.98 25.5192 355.685 27.5987 355.685 30.2235V58.3585H372.491V27.1271C372.491 21.6899 370.854 17.298 367.593 13.9516C364.326 10.6052 359.843 8.93481 354.139 8.93481C347.333 8.93481 341.901 11.5938 337.845 16.906H337.538V14.8891C337.538 12.3778 335.504 10.3438 332.993 10.3438H321.351V33.445C320.584 25.5079 317.561 19.332 312.272 14.9402C307.46 10.9404 301.443 8.93481 294.227 8.93481C286.251 8.93481 279.739 11.3438 274.689 16.1561C270.246 20.3945 267.757 25.5704 267.223 31.6951C266.78 25.5022 264.769 20.3036 261.184 16.1106C257.093 11.3267 251.61 8.93481 244.735 8.93481C237.861 8.93481 232.81 11.3438 228.753 16.1561H228.447V13.7528C228.447 11.8722 226.918 10.3438 225.038 10.3438H212.362V30.9224C211.658 25.1215 209.135 20.2013 204.783 16.1617C199.584 11.3495 192.801 8.9405 184.415 8.9405C176.029 8.9405 169.222 11.3495 163.995 16.1617C158.774 20.9797 156.16 27.0419 156.16 34.3597C156.16 41.6775 158.774 47.7397 163.995 52.5577V52.552ZM294.54 19.8206C297.29 19.8206 299.574 20.6672 301.397 22.3546C303.216 24.042 304.267 26.326 304.545 29.2009H283.717C284.955 22.9512 288.563 19.8206 294.546 19.8206H294.54ZM321.357 38.297V42.7513H307.176C306.017 42.7513 304.931 43.3365 304.312 44.3194C302.733 46.808 300.227 48.7681 295.472 48.8022C292.102 48.8249 289.421 47.8818 287.427 46.0353C285.432 44.1888 284.16 41.6093 283.609 38.297H321.357ZM231.537 25.0249C233.463 22.491 236.179 21.224 239.685 21.224C243.19 21.224 245.838 22.4455 247.622 24.8829C249.411 27.3203 250.303 30.6667 250.303 34.9165C250.303 39.1663 249.394 42.1832 247.571 44.5297C245.747 46.8761 243.224 48.0465 239.991 48.0465C236.418 48.0465 233.634 46.8421 231.64 44.4331C229.645 42.0241 228.651 38.8538 228.651 34.9165C228.651 30.9792 229.611 27.5532 231.537 25.0193V25.0249ZM176.063 23.667C177.989 21.0422 180.739 19.7297 184.312 19.7297C187.886 19.7297 190.653 21.0592 192.613 23.7182C194.573 26.3771 195.55 29.9224 195.55 34.3654C195.55 38.8084 194.573 42.3366 192.613 44.9615C190.653 47.5863 187.886 48.8988 184.312 48.8988C180.739 48.8988 177.989 47.5863 176.063 44.9615C174.137 42.3366 173.176 38.8027 173.176 34.3654C173.176 29.9281 174.137 26.2976 176.063 23.6727V23.667Z" fill="#FFFAEE" fill-opacity="0.2"/>
<path d="M372.491 65.0288H355.685V77.4089H372.491V65.0288Z" fill="#FFFAEE" fill-opacity="0.2"/>
<path d="M474.525 87.681C471.259 84.3345 466.776 82.6642 461.072 82.6642C454.265 82.6642 448.833 85.3231 444.777 90.6354H444.47V87.4821C444.47 85.6015 442.942 84.0732 441.061 84.0732H428.283V102.476C427.46 97.0101 424.971 92.3398 420.806 88.4821C415.614 83.6698 408.83 81.2608 400.444 81.2608C392.058 81.2608 385.251 83.6698 380.03 88.4821C375.837 92.3455 373.331 97.0157 372.502 102.487V87.4821C372.502 85.6015 370.974 84.0732 369.093 84.0732H355.696V112.879C355.48 111.81 355.156 110.822 354.719 109.913C353.861 108.129 352.844 106.725 351.679 105.691C350.509 104.657 348.912 103.754 346.884 102.97C344.856 102.192 343.083 101.641 341.572 101.328C340.06 101.016 338.134 100.669 335.799 100.294C335.248 100.231 334.527 100.124 333.635 99.9645C332.743 99.8111 332.038 99.6804 331.521 99.5895C331.004 99.4986 330.351 99.3849 329.561 99.2599C328.771 99.135 328.152 99.01 327.703 98.885C327.254 98.76 326.754 98.6009 326.209 98.4134C325.658 98.2259 325.232 98.0384 324.919 97.8509C324.612 97.6634 324.3 97.4475 323.993 97.1919C323.686 96.9419 323.459 96.6635 323.323 96.3453C323.186 96.0328 323.118 95.6863 323.118 95.3113C323.118 93.8738 323.788 92.7773 325.129 92.0273C326.47 91.2774 328.237 90.9024 330.442 90.9024C334.51 90.9024 337.129 92.1012 338.293 94.5045C338.879 95.709 340.043 96.5328 341.384 96.5328H354.367C353.952 91.7205 351.719 87.9537 347.662 85.2322C343.606 82.5108 337.901 81.1529 330.544 81.1529C324.01 81.1529 318.584 82.4994 314.249 85.1868C309.92 87.8741 307.755 91.658 307.755 96.5328C307.755 98.7202 308.13 100.646 308.891 102.3C309.647 103.959 310.596 105.271 311.727 106.237C312.863 107.208 314.34 108.066 316.158 108.816C317.982 109.566 319.647 110.117 321.158 110.458C322.669 110.805 324.527 111.129 326.726 111.441C327.209 111.504 327.964 111.612 328.993 111.771C330.021 111.93 330.777 112.055 331.26 112.146C331.737 112.242 332.407 112.367 333.271 112.521C334.129 112.68 334.782 112.816 335.231 112.941C335.68 113.066 336.208 113.237 336.828 113.458C337.447 113.68 337.913 113.913 338.22 114.163C338.526 114.413 338.856 114.697 339.197 115.009C339.538 115.322 339.782 115.668 339.918 116.043C340.055 116.418 340.123 116.856 340.123 117.356C340.123 118.856 339.384 120.026 337.907 120.873C336.43 121.719 334.419 122.14 331.873 122.14C326.027 122.14 322.8 119.765 322.181 115.009H307.142C307.022 113.1 306.607 111.39 305.892 109.896C305.034 108.112 304.017 106.708 302.852 105.674C301.682 104.64 300.085 103.737 298.057 102.953C296.028 102.175 294.256 101.623 292.745 101.311C291.233 100.999 289.307 100.652 286.972 100.277C286.421 100.214 285.699 100.106 284.807 99.9474C283.915 99.794 283.211 99.6633 282.694 99.5724C282.177 99.4758 281.523 99.3679 280.734 99.2429C279.944 99.1179 279.325 98.9929 278.876 98.8679C278.427 98.7429 277.933 98.5838 277.382 98.3964C276.831 98.2089 276.404 98.0214 276.092 97.8339C275.785 97.6464 275.473 97.4305 275.166 97.1748C274.859 96.9248 274.632 96.6464 274.495 96.3283C274.359 96.0158 274.291 95.6692 274.291 95.2942C274.291 93.8568 274.961 92.7603 276.302 92.0103C277.643 91.2603 279.41 90.8854 281.614 90.8854C285.682 90.8854 288.302 92.0842 289.466 94.4875C290.051 95.6919 291.216 96.5158 292.557 96.5158H305.539C305.125 91.7035 302.892 87.9366 298.835 85.2152C294.779 82.4937 289.074 81.1358 281.717 81.1358C275.183 81.1358 269.757 82.4824 265.428 85.1697C261.098 87.8571 258.934 91.641 258.934 96.5158C258.934 98.7032 259.309 100.629 260.07 102.283C260.826 103.942 261.769 105.254 262.905 106.22C264.041 107.191 265.519 108.049 267.337 108.799C269.155 109.549 270.825 110.1 272.336 110.441C273.848 110.788 275.706 111.112 277.904 111.424C278.382 111.487 279.143 111.595 280.171 111.754C281.205 111.913 281.961 112.038 282.438 112.129C282.915 112.225 283.586 112.35 284.449 112.504C285.307 112.663 285.961 112.799 286.41 112.924C286.858 113.049 287.387 113.219 288.006 113.441C288.625 113.663 289.091 113.896 289.398 114.146C289.705 114.396 290.034 114.68 290.375 114.992C290.716 115.305 290.961 115.651 291.097 116.026C291.233 116.401 291.301 116.839 291.301 117.339C291.301 118.839 290.563 120.009 289.086 120.855C287.608 121.702 285.597 122.122 283.052 122.122C278.183 122.122 275.126 120.475 273.887 117.174C273.388 115.839 272.058 114.998 270.626 114.998H257.479C257.479 114.998 257.479 115.026 257.479 115.043H243.968C242.809 115.043 241.724 115.628 241.105 116.611C239.526 119.1 237.02 121.054 232.265 121.094C228.895 121.117 226.214 120.174 224.219 118.327C222.225 116.481 220.953 113.901 220.401 110.589H258.348C258.485 100.271 255.394 92.4875 249.071 87.2378C244.258 83.238 238.241 81.2324 231.026 81.2324C223.049 81.2324 216.538 83.6414 211.487 88.4536C206.436 93.2716 203.908 99.2997 203.908 106.555C203.908 107.731 203.982 108.867 204.107 109.981C204.09 109.953 204.078 109.919 204.067 109.884C203.209 108.1 202.192 106.697 201.027 105.663C199.857 104.629 198.26 103.726 196.232 102.942C194.204 102.163 192.431 101.612 190.92 101.3C189.409 100.987 187.483 100.641 185.147 100.266C184.596 100.203 183.875 100.095 182.983 99.9361C182.091 99.7827 181.386 99.652 180.869 99.5611C180.352 99.4702 179.699 99.3565 178.909 99.2315C178.119 99.1065 177.5 98.9815 177.051 98.8566C176.602 98.7316 176.102 98.5725 175.557 98.385C175.006 98.1975 174.58 98.01 174.267 97.8225C173.961 97.635 173.648 97.4191 173.341 97.1635C173.034 96.9135 172.807 96.6351 172.671 96.3169C172.534 96.0044 172.466 95.6579 172.466 95.2829C172.466 93.8454 173.137 92.7489 174.478 91.9989C175.818 91.249 177.585 90.874 179.79 90.874C183.858 90.874 186.477 92.0728 187.642 94.4761C188.227 95.6806 189.392 96.5044 190.732 96.5044H203.715C203.3 91.6921 201.067 87.9253 197.011 85.2038C192.954 82.4823 187.25 81.1245 179.892 81.1245C173.358 81.1245 167.932 82.471 163.597 85.1584C159.268 87.8457 157.103 91.6296 157.103 96.5044C157.103 98.6918 157.478 100.618 158.24 102.271C158.995 103.93 159.944 105.243 161.075 106.208C162.211 107.18 163.688 108.038 165.506 108.788C167.33 109.538 168.995 110.089 170.506 110.43C172.017 110.776 173.875 111.1 176.074 111.413C176.557 111.475 177.313 111.583 178.341 111.742C179.369 111.901 180.125 112.026 180.608 112.117C181.085 112.214 181.756 112.339 182.619 112.492C183.477 112.651 184.13 112.788 184.579 112.913C185.028 113.038 185.557 113.208 186.176 113.43C186.795 113.651 187.261 113.884 187.568 114.134C187.875 114.384 188.204 114.668 188.545 114.981C188.886 115.293 189.13 115.64 189.267 116.015C189.403 116.39 189.471 116.827 189.471 117.327C189.471 118.827 188.733 119.998 187.255 120.844C185.778 121.691 183.767 122.111 181.222 122.111C176.352 122.111 173.296 120.463 172.057 117.162C171.557 115.827 170.228 114.986 168.796 114.986H155.649C155.922 120.299 158.348 124.475 162.916 127.509C167.484 130.543 173.62 132.059 181.324 132.059C188.471 132.059 194.266 130.685 198.698 127.935C203.13 125.185 205.351 121.248 205.351 116.117C205.351 115.884 205.345 115.657 205.334 115.43C206.59 119.009 208.675 122.162 211.584 124.884C216.703 129.668 223.526 132.059 232.054 132.059C238.446 132.059 243.968 130.656 248.758 127.651C253.195 124.867 256.235 121.043 257.712 117.111C258.456 121.424 260.797 124.895 264.746 127.509C269.314 130.543 275.45 132.059 283.154 132.059C290.301 132.059 296.097 130.685 300.528 127.935C304.13 125.702 306.272 122.679 306.943 118.878C307.971 122.384 310.175 125.264 313.567 127.514C318.135 130.548 324.271 132.065 331.976 132.065C339.123 132.065 344.918 130.69 349.35 127.94C352.838 125.776 354.946 122.878 355.69 119.242V132.065H372.496V110.833C373.326 116.305 375.831 120.975 380.024 124.838C385.246 129.656 392.052 132.059 400.438 132.059C408.824 132.059 415.614 129.651 420.801 124.838C424.96 120.98 427.454 116.31 428.278 110.845V132.065H445.084V105.521C445.084 102.521 445.942 100.084 447.663 98.2032C449.379 96.3283 451.617 95.3908 454.367 95.3908C457.117 95.3908 459.094 96.1578 460.503 97.6862C461.912 99.2202 462.617 101.3 462.617 103.924V132.059H479.423V100.828C479.423 95.3908 477.787 90.999 474.525 87.6526V87.681ZM231.333 92.1353C234.083 92.1353 236.367 92.9818 238.19 94.6693C240.008 96.3567 241.06 98.6407 241.338 101.516H220.509C221.748 95.2658 225.356 92.1353 231.338 92.1353H231.333ZM408.637 117.27C406.676 119.895 403.91 121.208 400.336 121.208C396.762 121.208 394.012 119.895 392.086 117.27C390.16 114.646 389.2 111.112 389.2 106.674C389.2 102.237 390.16 98.6066 392.086 95.9817C394.012 93.3568 396.762 92.0444 400.336 92.0444C403.91 92.0444 406.676 93.3739 408.637 96.0328C410.597 98.6918 411.574 102.237 411.574 106.68C411.574 111.123 410.597 114.651 408.637 117.276V117.27Z" fill="#FFFAEE" fill-opacity="0.2"/>
</g>
</g>
<defs>
<filter id="filter0_ii_20231_42951" x="-102.189" y="-102.189" width="684.378" height="345.378" filterUnits="userSpaceOnUse" color-interpolation-filters="sRGB">
<feFlood flood-opacity="0" result="BackgroundImageFix"/>
<feBlend mode="normal" in="SourceGraphic" in2="BackgroundImageFix" result="shape"/>
<feColorMatrix in="SourceAlpha" type="matrix" values="0 0 0 0 0 0 0 0 0 0 0 0 0 0 0 0 0 0 127 0" result="hardAlpha"/>
<feOffset dx="-3.4063" dy="3.4063"/>
<feGaussianBlur stdDeviation="1.70315"/>
<feComposite in2="hardAlpha" operator="arithmetic" k2="-1" k3="1"/>
<feColorMatrix type="matrix" values="0 0 0 0 1 0 0 0 0 1 0 0 0 0 1 0 0 0 0.6 0"/>
<feBlend mode="normal" in2="shape" result="effect1_innerShadow_20231_42951"/>
<feColorMatrix in="SourceAlpha" type="matrix" values="0 0 0 0 0 0 0 0 0 0 0 0 0 0 0 0 0 0 127 0" result="hardAlpha"/>
<feOffset dx="3.4063" dy="-3.4063"/>
<feGaussianBlur stdDeviation="1.70315"/>
<feComposite in2="hardAlpha" operator="arithmetic" k2="-1" k3="1"/>
<feColorMatrix type="matrix" values="0 0 0 0 0.84 0 0 0 0 0.823529 0 0 0 0 0.784 0 0 0 0.6 0"/>
<feBlend mode="normal" in2="effect1_innerShadow_20231_42951" result="effect2_innerShadow_20231_42951"/>
</filter>
</defs>
</svg>
