<svg preserveAspectRatio="none" width="100%" height="100%" overflow="visible" style="display: block;" viewBox="0 0 176 88" fill="none" xmlns="http://www.w3.org/2000/svg">
<path id="Vector" d="M173.792 49.6687C172.317 46.5865 170.568 44.162 168.565 42.3755C166.553 40.589 163.808 39.0282 160.32 37.6736C156.832 36.3288 153.784 35.3767 151.185 34.8368C148.586 34.2969 145.274 33.708 141.259 33.0601C140.312 32.9521 139.071 32.7656 137.537 32.4908C136.003 32.2258 134.792 32 133.903 31.8429C133.014 31.6761 131.89 31.4896 130.532 31.2736C129.174 31.0577 128.109 30.8417 127.337 30.6258C126.566 30.4098 125.706 30.135 124.768 29.811C123.82 29.4871 123.088 29.1632 122.55 28.8393C122.023 28.5153 121.485 28.1423 120.958 27.7104C120.43 27.2785 120.04 26.7877 119.805 26.2479C119.571 25.708 119.453 25.1092 119.453 24.4613C119.453 21.9779 120.606 20.0834 122.912 18.7877C125.217 17.492 128.256 16.8442 132.046 16.8442C139.041 16.8442 143.545 18.9153 145.548 23.0675C146.554 25.1485 148.557 26.5718 150.863 26.5718H173.186C172.473 18.2577 168.634 11.7399 161.658 7.04785C154.683 2.34601 144.874 0 132.222 0C120.987 0 111.657 2.32638 104.203 6.96933C97.1102 11.3963 93.3977 17.5411 93.0656 25.3939C90.8479 20.6626 87.702 16.3828 83.5988 12.5546C74.6791 4.24049 63.0044 0.0785276 48.5844 0.0785276C34.1644 0.0785276 22.4604 4.24049 13.4723 12.5546C4.49403 20.8785 0 31.3521 0 43.9951C0 56.638 4.49403 67.1117 13.4723 75.4356C22.4506 83.7595 34.1547 87.9117 48.5746 87.9117C62.9946 87.9117 74.6693 83.7497 83.589 75.4356C86.9009 72.3534 89.5876 68.9767 91.6685 65.2957C93.4466 71.3129 97.2274 76.2699 103.031 80.1374C110.885 85.3791 121.437 88 134.684 88C146.974 88 156.939 85.6245 164.56 80.8736C172.18 76.1227 176 69.3104 176 60.4564C176 56.3534 175.258 52.7607 173.782 49.6785L173.792 49.6687ZM62.682 25.6C65.7497 29.7914 67.4105 35.2687 67.684 42.0123C59.3212 39.5779 53.8112 31.519 50.7728 18.8368C55.7846 19.3669 59.7609 21.6147 62.682 25.6ZM46.3276 18.8172C43.2893 31.7546 37.701 39.8331 29.3089 42.0515C29.5727 35.1902 31.1944 29.6736 34.223 25.5313C37.1442 21.5264 41.1888 19.2883 46.3276 18.827V18.8172ZM34.223 62.3018C30.9111 57.7669 29.2601 51.6613 29.2601 43.9951C29.2601 43.8086 29.2698 43.6417 29.2698 43.465C38.1407 46.0074 43.5335 54.9202 46.2788 69.0061C41.1595 68.535 37.1344 66.2969 34.223 62.3018ZM62.682 62.3018C59.6534 66.3755 55.5013 68.6037 50.2355 69.0159C53.1664 54.8908 58.9207 45.8503 67.7134 43.4356C67.7134 43.6221 67.7329 43.7988 67.7329 43.9853C67.7329 51.6614 66.0525 57.7571 62.682 62.292V62.3018ZM144.893 68.6233C142.353 70.0761 138.895 70.8123 134.518 70.8123C126.146 70.8123 120.889 67.9656 118.76 62.2626C117.9 59.9558 115.614 58.5031 113.152 58.5031H94.7069C96.2212 54.0368 96.9832 49.2074 96.9832 44.0049C96.9832 42.6012 96.9148 41.2172 96.8073 39.8626C97.7159 41.2172 98.732 42.3951 99.8555 43.3571C101.809 45.0356 104.349 46.5178 107.476 47.8135C110.612 49.1092 113.474 50.0613 116.073 50.6503C118.672 51.2491 121.866 51.8086 125.647 52.3485C126.478 52.4564 127.777 52.6429 129.545 52.9178C131.314 53.1926 132.613 53.4086 133.443 53.5656C134.264 53.7325 135.417 53.9485 136.902 54.2135C138.377 54.4883 139.501 54.7239 140.272 54.9399C141.044 55.1558 141.953 55.4503 143.018 55.8331C144.083 56.216 144.884 56.6184 145.411 57.0503C145.939 57.4822 146.505 57.973 147.092 58.5129C147.678 59.0528 148.098 59.6515 148.332 60.2994C148.567 60.9472 148.684 61.7031 148.684 62.5669C148.684 65.1583 147.414 67.1902 144.874 68.6429L144.893 68.6233Z" fill="var(--fill-0, #FFFAEE)"/>
</svg>
