<svg preserveAspectRatio="xMidYMid meet" width="324" height="124" viewBox="0 0 324 124" fill="none" xmlns="http://www.w3.org/2000/svg">
<g id="Vector">
<path d="M8.34618 43.6172C13.5675 48.4351 20.374 50.8384 28.76 50.8384C37.1459 50.8384 43.9353 48.4294 49.1226 43.6172C53.4747 39.5833 55.9916 34.6631 56.6961 28.8679V68.4739H73.4964L73.5078 44.458H73.7123C77.2178 48.7703 82.2005 50.9293 88.6661 50.9293C95.609 50.9293 101.177 48.6169 105.37 43.9865C109.08 39.8901 111.148 34.5722 111.574 28.027C112.131 34.2597 114.648 39.4697 119.136 43.657C124.255 48.4408 131.079 50.8327 139.607 50.8327C145.999 50.8327 151.521 49.4294 156.311 46.4239C161.236 43.3331 164.441 38.9583 165.696 34.5892V49.4294H182.502V22.8852C182.502 19.8854 183.36 17.448 185.082 15.5674C186.798 13.6925 189.036 12.7551 191.786 12.7551C194.536 12.7551 196.513 13.5221 197.922 15.0504C199.331 16.5844 200.036 18.6639 200.036 21.2887V49.4237H216.842V18.1923C216.842 12.7551 215.205 8.36323 211.944 5.0168C208.677 1.67037 204.195 0 198.49 0C191.684 0 186.252 2.65896 182.196 7.9712H181.889V5.95425C181.889 3.44301 179.855 1.40902 177.344 1.40902H165.702V24.5102C164.935 16.5731 161.913 10.3972 156.623 6.00539C151.811 2.00558 145.794 0 138.578 0C130.602 0 124.091 2.40897 119.04 7.22124C114.597 11.4597 112.108 16.6355 111.574 22.7602C111.131 16.5674 109.12 11.3688 105.535 7.17579C101.444 2.39193 95.9612 0 89.0866 0C82.2119 0 77.161 2.40897 73.1044 7.22124H72.7976V4.81795C72.7976 2.93736 71.2692 1.40902 69.3886 1.40902H56.7131V21.9876C56.0086 16.1867 53.486 11.2665 49.134 7.22692C43.9353 2.41465 37.1516 0.00568154 28.7656 0.00568154C20.3797 0.00568154 13.5732 2.41465 8.34618 7.22692C3.12484 12.0449 0.511335 18.1071 0.511335 25.4249C0.511335 32.7427 3.12484 38.8049 8.34618 43.6229V43.6172ZM138.891 10.8858C141.641 10.8858 143.925 11.7324 145.749 13.4198C147.567 15.1072 148.618 17.3912 148.896 20.2661H128.068C129.306 14.0164 132.914 10.8858 138.897 10.8858H138.891ZM165.708 29.3622V33.8165H151.527C150.368 33.8165 149.282 34.4017 148.663 35.3846C147.084 37.8731 144.578 39.8333 139.823 39.8674C136.454 39.8901 133.772 38.947 131.778 37.1005C129.783 35.254 128.511 32.6745 127.96 29.3622H165.708ZM75.8883 16.0901C77.8144 13.5562 80.5302 12.2892 84.0357 12.2892C87.5412 12.2892 90.1888 13.5107 91.9728 15.9481C93.7625 18.3855 94.6545 21.7319 94.6545 25.9817C94.6545 30.2315 93.7454 33.2484 91.9216 35.5948C90.0979 37.9413 87.5753 39.1117 84.3425 39.1117C80.7688 39.1117 77.9848 37.9072 75.9906 35.4983C73.9964 33.0893 73.0021 29.919 73.0021 25.9817C73.0021 22.0444 73.9623 18.6184 75.8883 16.0844V16.0901ZM20.4138 14.7322C22.3398 12.1074 25.0897 10.7949 28.6634 10.7949C32.2371 10.7949 35.004 12.1244 36.9641 14.7834C38.9242 17.4423 39.9015 20.9876 39.9015 25.4306C39.9015 29.8735 38.9242 33.4018 36.9641 36.0266C35.004 38.6515 32.2371 39.964 28.6634 39.964C25.0897 39.964 22.3398 38.6515 20.4138 36.0266C18.4877 33.4018 17.5275 29.8679 17.5275 25.4306C17.5275 20.9933 18.4877 17.3628 20.4138 14.7379V14.7322Z" fill="var(--fill-0, #FFFAEE)"/>
<path d="M216.842 56.094H200.036V68.4741H216.842V56.094Z" fill="var(--fill-0, #FFFAEE)"/>
<path d="M318.876 78.7461C315.61 75.3997 311.127 73.7293 305.423 73.7293C298.616 73.7293 293.185 76.3883 289.128 81.7005H288.821V78.5473C288.821 76.6667 287.293 75.1384 285.412 75.1384H272.634V93.5409C271.811 88.0752 269.322 83.405 265.158 79.5472C259.965 74.735 253.181 72.326 244.795 72.326C236.409 72.326 229.602 74.735 224.381 79.5472C220.188 83.4107 217.683 88.0809 216.853 93.5522V78.5473C216.853 76.6667 215.325 75.1384 213.444 75.1384H200.047V103.944C199.831 102.876 199.507 101.887 199.07 100.978C198.212 99.194 197.195 97.7907 196.03 96.7566C194.86 95.7226 193.263 94.8192 191.235 94.0352C189.207 93.2568 187.434 92.7057 185.923 92.3932C184.411 92.0807 182.485 91.7341 180.15 91.3592C179.599 91.2967 178.878 91.1887 177.986 91.0296C177.094 90.8762 176.389 90.7456 175.872 90.6547C175.355 90.5638 174.702 90.4501 173.912 90.3251C173.122 90.2001 172.503 90.0751 172.054 89.9501C171.605 89.8251 171.105 89.6661 170.56 89.4786C170.009 89.2911 169.583 89.1036 169.27 88.9161C168.963 88.7286 168.651 88.5127 168.344 88.257C168.037 88.0071 167.81 87.7287 167.674 87.4105C167.537 87.098 167.469 86.7514 167.469 86.3765C167.469 84.939 168.14 83.8425 169.48 83.0925C170.821 82.3426 172.588 81.9676 174.793 81.9676C178.861 81.9676 181.48 83.1664 182.645 85.5697C183.23 86.7742 184.394 87.598 185.735 87.598H198.718C198.303 82.7857 196.07 79.0189 192.013 76.2974C187.957 73.5759 182.252 72.2181 174.895 72.2181C168.361 72.2181 162.935 73.5646 158.6 76.2519C154.271 78.9393 152.106 82.7232 152.106 87.598C152.106 89.7854 152.481 91.7114 153.243 93.3648C153.998 95.0238 154.947 96.3362 156.078 97.3021C157.214 98.2736 158.691 99.1315 160.509 99.8815C162.333 100.631 163.998 101.183 165.509 101.523C167.02 101.87 168.878 102.194 171.077 102.506C171.56 102.569 172.315 102.677 173.344 102.836C174.372 102.995 175.128 103.12 175.611 103.211C176.088 103.307 176.758 103.432 177.622 103.586C178.48 103.745 179.133 103.881 179.582 104.006C180.031 104.131 180.559 104.302 181.179 104.523C181.798 104.745 182.264 104.978 182.571 105.228C182.877 105.478 183.207 105.762 183.548 106.074C183.889 106.387 184.133 106.733 184.269 107.108C184.406 107.483 184.474 107.921 184.474 108.421C184.474 109.921 183.735 111.091 182.258 111.938C180.781 112.784 178.77 113.205 176.224 113.205C170.378 113.205 167.151 110.83 166.532 106.074H151.493C151.373 104.165 150.959 102.455 150.243 100.961C149.385 99.177 148.368 97.7736 147.203 96.7396C146.033 95.7055 144.436 94.8022 142.408 94.0181C140.38 93.2398 138.607 92.6886 137.096 92.3762C135.584 92.0637 133.658 91.7171 131.323 91.3421C130.772 91.2796 130.05 91.1717 129.158 91.0126C128.266 90.8592 127.562 90.7285 127.045 90.6376C126.528 90.541 125.875 90.4331 125.085 90.3081C124.295 90.1831 123.676 90.0581 123.227 89.9331C122.778 89.8081 122.284 89.649 121.733 89.4615C121.182 89.274 120.755 89.0865 120.443 88.8991C120.136 88.7116 119.824 88.4957 119.517 88.24C119.21 87.99 118.983 87.7116 118.846 87.3935C118.71 87.081 118.642 86.7344 118.642 86.3594C118.642 84.922 119.312 83.8254 120.653 83.0755C121.994 82.3255 123.761 81.9505 125.965 81.9505C130.033 81.9505 132.653 83.1493 133.817 85.5526C134.403 86.7571 135.567 87.5809 136.908 87.5809H149.89C149.476 82.7687 147.243 79.0018 143.186 76.2804C139.13 73.5589 133.425 72.201 126.068 72.201C119.534 72.201 114.108 73.5475 109.779 76.2349C105.449 78.9223 103.285 82.7062 103.285 87.5809C103.285 89.7683 103.66 91.6944 104.421 93.3477C105.177 95.0067 106.12 96.3192 107.256 97.285C108.392 98.2566 109.87 99.1145 111.688 99.8644C113.506 100.614 115.176 101.165 116.688 101.506C118.199 101.853 120.057 102.177 122.255 102.489C122.733 102.552 123.494 102.66 124.522 102.819C125.556 102.978 126.312 103.103 126.789 103.194C127.267 103.29 127.937 103.415 128.801 103.569C129.658 103.728 130.312 103.864 130.761 103.989C131.21 104.114 131.738 104.285 132.357 104.506C132.976 104.728 133.442 104.961 133.749 105.211C134.056 105.461 134.385 105.745 134.726 106.057C135.067 106.37 135.312 106.716 135.448 107.091C135.584 107.466 135.652 107.904 135.652 108.404C135.652 109.904 134.914 111.074 133.437 111.921C131.959 112.767 129.948 113.188 127.403 113.188C122.534 113.188 119.477 111.54 118.239 108.239C117.739 106.904 116.409 106.063 114.977 106.063H101.83C101.83 106.063 101.83 106.091 101.83 106.108H88.3196C87.1605 106.108 86.0754 106.694 85.4561 107.677C83.8766 110.165 81.371 112.12 76.6156 112.159C73.2464 112.182 70.5647 111.239 68.5705 109.392C66.5763 107.546 65.3036 104.966 64.7525 101.654H102.7C102.836 91.3364 99.7451 83.5527 93.4216 78.303C88.6093 74.3032 82.5926 72.2976 75.377 72.2976C67.4001 72.2976 60.8891 74.7066 55.8382 79.5188C50.7873 84.3368 48.259 90.3649 48.259 97.6202C48.259 98.7963 48.3329 99.9326 48.4579 101.046C48.4408 101.018 48.4295 100.984 48.4181 100.95C47.5602 99.1656 46.5432 97.7623 45.3785 96.7282C44.2081 95.6942 42.6116 94.7908 40.5832 94.0068C38.5549 93.2284 36.7823 92.6773 35.271 92.3648C33.7597 92.0523 31.8337 91.7057 29.4986 91.3308C28.9475 91.2683 28.2259 91.1603 27.3339 91.0012C26.4419 90.8478 25.7374 90.7172 25.2204 90.6262C24.7033 90.5353 24.05 90.4217 23.2602 90.2967C22.4705 90.1717 21.8512 90.0467 21.4024 89.9217C20.9535 89.7967 20.4535 89.6377 19.9081 89.4502C19.357 89.2627 18.9309 89.0752 18.6184 88.8877C18.3116 88.7002 17.9991 88.4843 17.6923 88.2286C17.3855 87.9787 17.1583 87.7003 17.0219 87.3821C16.8855 87.0696 16.8174 86.723 16.8174 86.3481C16.8174 84.9106 17.4878 83.8141 18.8286 83.0641C20.1695 82.3141 21.9364 81.9392 24.1409 81.9392C28.2089 81.9392 30.828 83.138 31.9928 85.5413C32.578 86.7458 33.7427 87.5696 35.0835 87.5696H48.0658C47.6511 82.7573 45.4182 78.9904 41.3616 76.269C37.305 73.5475 31.6007 72.1896 24.2431 72.1896C17.7094 72.1896 12.2835 73.5362 7.94848 76.2235C3.61914 78.9109 1.45447 82.6948 1.45447 87.5696C1.45447 89.757 1.82946 91.683 2.59078 93.3364C3.34643 94.9954 4.29524 96.3078 5.42587 97.2737C6.56218 98.2452 8.03938 99.1031 9.85747 99.8531C11.6812 100.603 13.3459 101.154 14.8572 101.495C16.3685 101.842 18.2264 102.165 20.4251 102.478C20.9081 102.54 21.6637 102.648 22.6921 102.807C23.7204 102.967 24.4761 103.092 24.959 103.182C25.4363 103.279 26.1067 103.404 26.9703 103.557C27.8282 103.717 28.4816 103.853 28.9304 103.978C29.3792 104.103 29.9076 104.273 30.5269 104.495C31.1462 104.716 31.6121 104.949 31.9189 105.199C32.2257 105.449 32.5552 105.733 32.8961 106.046C33.237 106.358 33.4813 106.705 33.6177 107.08C33.754 107.455 33.8222 107.892 33.8222 108.392C33.8222 109.892 33.0836 111.063 31.6064 111.909C30.1292 112.756 28.1179 113.176 25.5726 113.176C20.7035 113.176 17.6469 111.529 16.4083 108.228C15.9083 106.892 14.5788 106.052 13.1471 106.052H0C0.272714 111.364 2.69873 115.54 7.26669 118.574C11.8347 121.608 17.9707 123.125 25.6749 123.125C32.8223 123.125 38.6174 121.75 43.049 119C47.4806 116.25 49.7021 112.313 49.7021 107.182C49.7021 106.949 49.6964 106.722 49.6851 106.495C50.9407 110.074 53.0258 113.227 55.9348 115.949C61.0538 120.733 67.8774 123.125 76.4054 123.125C82.7971 123.125 88.3196 121.721 93.1091 118.716C97.5464 115.932 100.586 112.108 102.063 108.177C102.807 112.489 105.148 115.96 109.097 118.574C113.665 121.608 119.801 123.125 127.505 123.125C134.653 123.125 140.448 121.75 144.879 119C148.481 116.767 150.623 113.744 151.294 109.943C152.322 113.449 154.527 116.33 157.918 118.579C162.486 121.613 168.622 123.13 176.327 123.13C183.474 123.13 189.269 121.755 193.701 119.006C197.189 116.841 199.297 113.943 200.041 110.307V123.13H216.847V101.898C217.677 107.37 220.182 112.04 224.375 115.903C229.597 120.721 236.403 123.125 244.789 123.125C253.175 123.125 259.965 120.716 265.152 115.903C269.311 112.046 271.805 107.375 272.629 101.91V123.13H289.435V96.5862C289.435 93.5863 290.293 91.1489 292.014 89.2684C293.73 87.3934 295.969 86.456 298.718 86.456C301.468 86.456 303.445 87.223 304.854 88.7513C306.263 90.2854 306.968 92.3648 306.968 94.9897V123.125H323.774V91.8932C323.774 86.456 322.138 82.0642 318.876 78.7177V78.7461ZM75.6838 83.2005C78.4337 83.2005 80.7177 84.047 82.5414 85.7344C84.3595 87.4219 85.4106 89.7058 85.689 92.5807H64.8605C66.0991 86.331 69.7068 83.2005 75.6895 83.2005H75.6838ZM252.988 108.336C251.028 110.96 248.261 112.273 244.687 112.273C241.113 112.273 238.363 110.96 236.437 108.336C234.511 105.711 233.551 102.177 233.551 97.7395C233.551 93.3023 234.511 89.6717 236.437 87.0469C238.363 84.422 241.113 83.1096 244.687 83.1096C248.261 83.1096 251.028 84.439 252.988 87.098C254.948 89.757 255.925 93.3023 255.925 97.7452C255.925 102.188 254.948 105.716 252.988 108.341V108.336Z" fill="var(--fill-0, #FFFAEE)"/>
</g>
</svg>
