<svg preserveAspectRatio="xMidYMid meet" width="141" height="124" viewBox="0 0 141 124" fill="none" xmlns="http://www.w3.org/2000/svg">
<path id="Vector" fill-rule="evenodd" clip-rule="evenodd" d="M41.9135 12.3824C58.9492 2.5867 77.9176 -1.61059 95.3152 0.55785C113.092 2.77285 127.139 11.3424 134.874 24.6786C142.61 38.0149 143.03 54.4147 136.071 70.8496C129.258 86.9415 116.122 101.196 99.0863 110.992C84.9813 119.102 69.557 123.375 54.7923 123.375C51.7215 123.375 48.6796 123.189 45.6846 122.817C27.9076 120.602 13.8612 112.033 6.12564 98.6967C-1.60985 85.3605 -2.03036 68.9606 4.92855 52.5258C11.7417 36.4339 24.8778 22.1783 41.9135 12.3824ZM52.8852 16.8111C52.6416 16.9257 52.3988 17.0432 52.1555 17.1605C47.3304 20.7609 42.7796 25.8294 38.3059 32.8173C22.5254 57.4667 26.4425 97.1907 46.9342 109.097C51.5289 111.767 56.3286 113.284 60.9757 113.835C48.5566 105.516 38.0081 85.5241 38.0081 61.6119H38.0142C38.0155 43.1524 44.3041 27.0301 52.8852 16.8111ZM32.7645 29.9472C11.695 48.4226 3.47734 74.6998 14.5793 93.8481C19.698 102.68 28.3244 108.971 39.318 112.043C29.7609 105.379 21.6029 93.9642 19.711 81.2327C17.5101 66.4314 21.1711 50.4559 28.965 36.2476C30.1829 34.0289 31.4505 31.9291 32.7645 29.9472ZM47.4368 65.7686C47.9155 77.7851 50.4666 88.9122 54.7459 97.4523C58.1378 104.225 62.382 108.731 66.7606 110.347C66.2819 98.3309 63.1466 87.7848 58.8672 79.2447C55.4753 72.472 51.8153 67.3849 47.4368 65.7686ZM93.2489 65.7686C88.8703 67.3848 85.2154 72.4661 81.8176 79.2447C77.5383 87.7848 74.403 98.3251 73.9242 110.347C78.3028 108.731 82.5412 104.231 85.939 97.4523C90.2183 88.9122 92.7702 77.791 93.2489 65.7686ZM80.2479 9.34797C80.0659 9.36281 79.8837 9.37731 79.7014 9.39359C92.1205 17.7102 102.67 37.701 102.672 61.6119L102.668 62.3512C102.503 80.4479 96.3052 96.2365 87.8779 106.324C93.5981 102.463 98.6444 96.475 105.941 83.3781C115.749 65.7747 113.98 30.5911 96.1439 14.6561C91.052 10.102 84.0288 9.46665 80.2479 9.34797ZM70.3665 25.1141C68.3797 48.016 61.0444 61.4008 47.1115 61.6145C61.7373 61.8502 68.6413 77.0589 70.0584 102.22C71.5809 77.0571 78.9359 61.8482 93.5708 61.6145C79.7497 61.3939 72.4212 47.8179 70.3665 25.1141ZM101.607 11.1569C120.816 23.9543 129.448 58.06 111.948 86.9186C110.487 89.5814 108.845 92.1241 107.054 94.534C116.14 86.9315 123.172 77.7385 127.396 67.7686C133.234 53.9731 132.965 40.3579 126.631 29.4343C121.322 20.2796 112.391 14.1183 101.607 11.1569ZM66.7555 12.8885C62.3769 14.5046 58.1385 19.0043 54.7407 25.7828C50.4613 34.3229 47.9095 45.4449 47.4308 57.4673C51.8094 55.8512 55.4643 50.7698 58.8621 43.9913C63.1414 35.4511 66.2767 24.9109 66.7555 12.8885ZM73.9242 12.8885C74.403 24.9051 77.5382 35.4511 81.8176 43.9913C85.2096 50.764 88.8703 55.8512 93.2489 57.4673C92.7702 45.4508 90.2183 34.3237 85.939 25.7836C82.547 19.0108 78.3028 14.5046 73.9242 12.8885Z" fill="var(--fill-0, #FFFAEE)"/>
</svg>
