<svg preserveAspectRatio="xMidYMid meet" width="50" height="44" viewBox="0 0 50 44" fill="none" xmlns="http://www.w3.org/2000/svg">
<path id="Vector" opacity="0.9" fill-rule="evenodd" clip-rule="evenodd" d="M14.7701 4.36352C20.7734 0.911541 27.4578 -0.567567 33.5887 0.196584C39.8532 0.97714 44.8031 3.997 47.5291 8.69664C50.255 13.3963 50.4033 19.1755 47.9509 24.9671C45.55 30.6378 40.9209 35.6611 34.9176 39.1131C29.9471 41.971 24.5116 43.4769 19.3086 43.4769C18.2264 43.4769 17.1545 43.4112 16.0991 43.2801C9.83453 42.4995 4.88462 39.4799 2.15865 34.7803C-0.567306 30.0807 -0.715491 24.3014 1.7368 18.5099C4.13772 12.8391 8.76682 7.81553 14.7701 4.36352ZM18.6365 5.92415C18.5507 5.96456 18.4651 6.00594 18.3794 6.04727C16.679 7.31606 15.0754 9.10217 13.4988 11.5647C7.93786 20.251 9.31823 34.2496 16.5394 38.4453C18.1586 39.3861 19.8499 39.9207 21.4876 40.1148C17.1111 37.1835 13.3939 30.1383 13.3939 21.7118H13.396C13.3965 15.2067 15.6126 9.52528 18.6365 5.92415ZM11.5461 10.5533C4.12127 17.0639 1.2254 26.3239 5.13767 33.0717C6.9415 36.184 9.98138 38.401 13.8555 39.4834C10.4876 37.1353 7.61279 33.1126 6.94607 28.626C6.17047 23.4101 7.4606 17.7804 10.2071 12.7735C10.6363 11.9916 11.083 11.2517 11.5461 10.5533ZM16.7165 23.1766C16.8852 27.4111 17.7842 31.3323 19.2922 34.3418C20.4875 36.7285 21.9832 38.3164 23.5262 38.886C23.3575 34.6514 22.2526 30.935 20.7446 27.9255C19.5493 25.5388 18.2595 23.7461 16.7165 23.1766ZM32.8605 23.1766C31.3175 23.7461 30.0295 25.5367 28.8322 27.9255C27.3241 30.935 26.2193 34.6493 26.0506 38.886C27.5936 38.3164 29.0872 36.7305 30.2845 34.3418C31.7925 31.3323 32.6918 27.4132 32.8605 23.1766ZM28.279 3.29419C28.2149 3.29941 28.1507 3.30452 28.0864 3.31026C32.4629 6.24098 36.1804 13.2857 36.181 21.7118L36.1798 21.9723C36.1218 28.3495 33.9375 33.9133 30.9678 37.4682C32.9836 36.1075 34.7619 33.9974 37.3331 29.3821C40.7895 23.1787 40.1659 10.7802 33.8807 5.16476C32.0863 3.55989 29.6114 3.33601 28.279 3.29419ZM24.7969 8.8501C24.0967 16.9206 21.5118 21.6374 16.6019 21.7127C21.756 21.7958 24.1889 27.1552 24.6883 36.0219C25.2248 27.1546 27.8167 21.795 32.9739 21.7127C28.1034 21.6349 25.5209 16.8508 24.7969 8.8501ZM35.8059 3.93166C42.5749 8.44139 45.6168 20.4601 39.45 30.6297C38.9352 31.5681 38.3565 32.4641 37.7253 33.3134C40.9271 30.6343 43.4054 27.3947 44.8937 23.8814C46.951 19.0199 46.8563 14.222 44.6241 10.3725C42.7534 7.14643 39.606 4.97522 35.8059 3.93166ZM23.5243 4.54184C21.9814 5.11136 20.4877 6.69705 19.2904 9.08574C17.7824 12.0952 16.8831 16.0146 16.7144 20.2512C18.2574 19.6817 19.5454 17.891 20.7427 15.5023C22.2508 12.4928 23.3556 8.77849 23.5243 4.54184ZM26.0506 4.54184C26.2193 8.77644 27.3241 12.4928 28.8322 15.5023C30.0275 17.889 31.3175 19.6817 32.8605 20.2512C32.6918 16.0167 31.7925 12.0955 30.2845 9.08604C29.0892 6.69934 27.5936 5.11137 26.0506 4.54184Z" fill="var(--fill-0, #FFFAEE)" fill-opacity="0.2"/>
</svg>
