<svg preserveAspectRatio="xMidYMid meet" width="115" height="44" viewBox="0 0 115 44" fill="none" xmlns="http://www.w3.org/2000/svg">
<g id="Vector" opacity="0.9">
<path d="M2.94116 15.3705C4.78113 17.0683 7.17971 17.9152 10.1349 17.9152C13.0901 17.9152 15.4826 17.0663 17.3106 15.3705C18.8442 13.949 19.7312 12.2151 19.9795 10.1729V24.1299H25.8998L25.9038 15.6668H25.9759C27.2112 17.1865 28.9671 17.9473 31.2456 17.9473C33.6922 17.9473 35.6543 17.1324 37.1319 15.5006C38.4393 14.0571 39.1681 12.1831 39.3182 9.87661C39.5144 12.073 40.4014 13.9089 41.9831 15.3845C43.787 17.0703 46.1916 17.9132 49.1968 17.9132C51.4493 17.9132 53.3954 17.4187 55.0832 16.3596C56.819 15.2704 57.9482 13.7287 58.3907 12.1891V17.4187H64.3131V8.06466C64.3131 7.00752 64.6154 6.1486 65.2221 5.48589C65.8267 4.82518 66.6155 4.49483 67.5846 4.49483C68.5536 4.49483 69.2504 4.76512 69.7469 5.3037C70.2434 5.84428 70.4917 6.57706 70.4917 7.50206V17.4167H76.4141V6.41088C76.4141 4.49483 75.8375 2.94716 74.6882 1.7679C73.537 0.588632 71.9573 0 69.9471 0C67.5485 0 65.6345 0.937006 64.205 2.80902H64.0968V2.09825C64.0968 1.2133 63.3801 0.496533 62.4951 0.496533H58.3927V8.63728C58.1224 5.84027 57.0573 3.66393 55.1933 2.11627C53.4975 0.706759 51.3772 0 48.8345 0C46.0234 0 43.729 0.848912 41.9491 2.54473C40.3834 4.03834 39.5064 5.8623 39.3182 8.02061C39.1621 5.83827 38.4533 4.0063 37.1899 2.52872C35.7484 0.842905 33.8163 0 31.3937 0C28.9711 0 27.1912 0.848912 25.7617 2.54473H25.6536V1.69782C25.6536 1.03511 25.115 0.496533 24.4523 0.496533H19.9855V7.74832C19.7372 5.70412 18.8482 3.97026 17.3146 2.54673C15.4826 0.850914 13.0921 0.00200215 10.1369 0.00200215C7.18171 0.00200215 4.78314 0.850914 2.94116 2.54673C1.10118 4.24456 0.180192 6.38085 0.180192 8.95962C0.180192 11.5384 1.10118 13.6747 2.94116 15.3725V15.3705ZM48.9446 3.83612C49.9136 3.83612 50.7185 4.13444 51.3612 4.72908C52.0019 5.32372 52.3723 6.12858 52.4704 7.14167H45.1305C45.5669 4.9393 46.8383 3.83612 48.9466 3.83612H48.9446ZM58.3947 10.3471V11.9168H53.3974C52.9889 11.9168 52.6065 12.123 52.3883 12.4694C51.8317 13.3463 50.9487 14.0371 49.2729 14.0491C48.0857 14.0571 47.1406 13.7247 46.4379 13.074C45.7351 12.4233 45.2866 11.5144 45.0924 10.3471H58.3947ZM26.7427 5.67009C27.4215 4.77713 28.3785 4.33065 29.6138 4.33065C30.8491 4.33065 31.7821 4.76111 32.4108 5.62004C33.0415 6.47896 33.3558 7.65822 33.3558 9.15583C33.3558 10.6534 33.0355 11.7166 32.3928 12.5435C31.7501 13.3704 30.8611 13.7828 29.7219 13.7828C28.4626 13.7828 27.4815 13.3583 26.7788 12.5094C26.076 11.6605 25.7256 10.5433 25.7256 9.15583C25.7256 7.76834 26.064 6.56105 26.7427 5.66809V5.67009ZM7.19372 5.19158C7.87245 4.26658 8.84149 3.80409 10.1008 3.80409C11.3602 3.80409 12.3352 4.27259 13.026 5.20959C13.7167 6.1466 14.0611 7.39594 14.0611 8.96162C14.0611 10.5273 13.7167 11.7706 13.026 12.6956C12.3352 13.6206 11.3602 14.0831 10.1008 14.0831C8.84149 14.0831 7.87245 13.6206 7.19372 12.6956C6.515 11.7706 6.17663 10.5253 6.17663 8.96162C6.17663 7.39794 6.515 6.11857 7.19372 5.19358V5.19158Z" fill="var(--fill-0, #FFFAEE)" fill-opacity="0.2"/>
<path d="M76.414 19.7673H70.4917V24.13H76.414V19.7673Z" fill="var(--fill-0, #FFFAEE)" fill-opacity="0.2"/>
<path d="M112.371 27.7498C111.219 26.5705 109.64 25.9819 107.63 25.9819C105.231 25.9819 103.317 26.9189 101.887 28.7909H101.779V27.6797C101.779 27.017 101.241 26.4784 100.578 26.4784H96.0752V32.9634C95.7849 31.0373 94.908 29.3916 93.4404 28.0321C91.6104 26.3363 89.2198 25.4874 86.2647 25.4874C83.3095 25.4874 80.9109 26.3363 79.0709 28.0321C77.5933 29.3936 76.7104 31.0393 76.4181 32.9674V27.6797C76.4181 27.017 75.8795 26.4784 75.2168 26.4784H70.4957V36.6293C70.4196 36.2529 70.3055 35.9046 70.1514 35.5842C69.849 34.9555 69.4906 34.461 69.0802 34.0966C68.6678 33.7322 68.1052 33.4139 67.3904 33.1376C66.6756 32.8633 66.0509 32.6691 65.5184 32.559C64.9858 32.4488 64.3071 32.3267 63.4842 32.1946C63.29 32.1725 63.0357 32.1345 62.7214 32.0785C62.407 32.0244 62.1588 31.9783 61.9766 31.9463C61.7944 31.9143 61.5641 31.8742 61.2858 31.8302C61.0075 31.7861 60.7893 31.7421 60.6311 31.698C60.473 31.654 60.2968 31.5979 60.1046 31.5319C59.9104 31.4658 59.7602 31.3997 59.6501 31.3337C59.542 31.2676 59.4318 31.1915 59.3237 31.1014C59.2156 31.0133 59.1355 30.9152 59.0875 30.8031C59.0394 30.693 59.0154 30.5708 59.0154 30.4387C59.0154 29.9321 59.2516 29.5457 59.7242 29.2814C60.1967 29.0172 60.8193 28.885 61.5962 28.885C63.0297 28.885 63.9527 29.3075 64.3631 30.1544C64.5694 30.5788 64.9798 30.8692 65.4523 30.8692H70.0272C69.8811 29.1733 69.0942 27.8459 67.6647 26.8869C66.2351 25.9278 64.225 25.4493 61.6322 25.4493C59.3297 25.4493 57.4177 25.9238 55.89 26.8709C54.3644 27.8179 53.6016 29.1513 53.6016 30.8692C53.6016 31.64 53.7337 32.3187 54.002 32.9013C54.2683 33.486 54.6026 33.9485 55.0011 34.2888C55.4015 34.6312 55.9221 34.9335 56.5628 35.1978C57.2055 35.4621 57.7921 35.6563 58.3246 35.7764C58.8572 35.8986 59.5119 36.0127 60.2868 36.1228C60.4569 36.1448 60.7232 36.1829 61.0856 36.2389C61.448 36.295 61.7143 36.339 61.8845 36.3711C62.0527 36.4051 62.2889 36.4491 62.5932 36.5032C62.8956 36.5593 63.1258 36.6073 63.284 36.6514C63.4421 36.6954 63.6284 36.7555 63.8466 36.8336C64.0648 36.9116 64.229 36.9937 64.3371 37.0818C64.4452 37.1699 64.5613 37.27 64.6815 37.3801C64.8016 37.4903 64.8877 37.6124 64.9357 37.7445C64.9838 37.8767 65.0078 38.0308 65.0078 38.207C65.0078 38.7356 64.7476 39.148 64.227 39.4464C63.7064 39.7447 62.9977 39.8928 62.1007 39.8928C60.0405 39.8928 58.9033 39.0559 58.685 37.3801H53.3853C53.3433 36.7074 53.1971 36.1048 52.9449 35.5782C52.6425 34.9495 52.2842 34.455 51.8737 34.0906C51.4613 33.7262 50.8987 33.4079 50.1839 33.1316C49.4691 32.8573 48.8445 32.6631 48.3119 32.553C47.7793 32.4428 47.1006 32.3207 46.2777 32.1886C46.0835 32.1665 45.8292 32.1285 45.5149 32.0724C45.2006 32.0184 44.9523 31.9723 44.7701 31.9403C44.5879 31.9063 44.3577 31.8682 44.0794 31.8242C43.8011 31.7801 43.5828 31.7361 43.4246 31.692C43.2665 31.648 43.0923 31.5919 42.8981 31.5259C42.7039 31.4598 42.5537 31.3937 42.4436 31.3276C42.3355 31.2616 42.2254 31.1855 42.1172 31.0954C42.0091 31.0073 41.929 30.9092 41.881 30.7971C41.8329 30.687 41.8089 30.5648 41.8089 30.4327C41.8089 29.9261 42.0452 29.5397 42.5177 29.2754C42.9902 29.0112 43.6128 28.879 44.3897 28.879C45.8232 28.879 46.7462 29.3015 47.1567 30.1484C47.3629 30.5728 47.7733 30.8631 48.2458 30.8631H52.8207C52.6746 29.1673 51.8877 27.8399 50.4582 26.8809C49.0287 25.9218 47.0185 25.4433 44.4257 25.4433C42.1232 25.4433 40.2112 25.9178 38.6856 26.8649C37.1599 27.8119 36.3971 29.1453 36.3971 30.8631C36.3971 31.634 36.5292 32.3127 36.7975 32.8953C37.0638 33.48 37.3962 33.9425 37.7966 34.2828C38.197 34.6252 38.7176 34.9275 39.3583 35.1918C39.999 35.4561 40.5876 35.6503 41.1202 35.7704C41.6527 35.8925 42.3074 36.0067 43.0823 36.1168C43.2505 36.1388 43.5187 36.1769 43.8811 36.2329C44.2455 36.289 44.5118 36.333 44.68 36.3651C44.8482 36.3991 45.0844 36.4431 45.3888 36.4972C45.6911 36.5533 45.9213 36.6013 46.0795 36.6454C46.2377 36.6894 46.4239 36.7495 46.6421 36.8276C46.8603 36.9056 47.0245 36.9877 47.1326 37.0758C47.2407 37.1639 47.3569 37.264 47.477 37.3741C47.5971 37.4843 47.6832 37.6064 47.7313 37.7385C47.7793 37.8707 47.8033 38.0248 47.8033 38.201C47.8033 38.7296 47.5431 39.142 47.0225 39.4404C46.502 39.7387 45.7932 39.8868 44.8962 39.8868C43.1804 39.8868 42.1032 39.3062 41.6668 38.143C41.4906 37.6725 41.0221 37.3761 40.5175 37.3761H35.8845C35.8845 37.3761 35.8845 37.3862 35.8845 37.3922H31.1234C30.715 37.3922 30.3326 37.5984 30.1143 37.9448C29.5578 38.8217 28.6748 39.5104 26.999 39.5244C25.8117 39.5325 24.8667 39.2001 24.164 38.5494C23.4612 37.8987 23.0127 36.9897 22.8185 35.8225H36.1909C36.2389 32.1866 35.1498 29.4436 32.9214 27.5936C31.2255 26.1841 29.1053 25.4774 26.5625 25.4774C23.7515 25.4774 21.457 26.3263 19.6771 28.0221C17.8972 29.7199 17.0063 31.8442 17.0063 34.4009C17.0063 34.8154 17.0323 35.2158 17.0763 35.6082C17.0703 35.5982 17.0663 35.5862 17.0623 35.5742C16.76 34.9455 16.4016 34.451 15.9912 34.0866C15.5787 33.7222 15.0161 33.4039 14.3014 33.1276C13.5866 32.8533 12.9619 32.6591 12.4294 32.549C11.8968 32.4388 11.2181 32.3167 10.3952 32.1846C10.201 32.1625 9.94669 32.1245 9.63235 32.0684C9.31801 32.0144 9.06974 31.9683 8.88755 31.9363C8.70535 31.9043 8.4751 31.8642 8.1968 31.8202C7.91851 31.7761 7.70027 31.7321 7.5421 31.688C7.38393 31.644 7.20774 31.5879 7.01554 31.5219C6.82133 31.4558 6.67117 31.3897 6.56105 31.3236C6.45293 31.2576 6.34281 31.1815 6.2347 31.0914C6.12658 31.0033 6.04649 30.9052 5.99844 30.7931C5.95039 30.683 5.92637 30.5608 5.92637 30.4287C5.92637 29.9221 6.16262 29.5357 6.63513 29.2714C7.10763 29.0072 7.7303 28.875 8.50714 28.875C9.94068 28.875 10.8637 29.2975 11.2741 30.1444C11.4803 30.5688 11.8908 30.8591 12.3633 30.8591H16.9382C16.792 29.1633 16.0052 27.8359 14.5757 26.8769C13.1461 25.9178 11.136 25.4393 8.54318 25.4393C6.2407 25.4393 4.32865 25.9138 2.80101 26.8608C1.27537 27.8079 0.512551 29.1413 0.512551 30.8591C0.512551 31.63 0.644693 32.3087 0.912981 32.8913C1.17927 33.476 1.51363 33.9384 1.91205 34.2788C2.31248 34.6212 2.83304 34.9235 3.47373 35.1878C4.11642 35.4521 4.70305 35.6463 5.23562 35.7664C5.7682 35.8885 6.4229 36.0027 7.19773 36.1128C7.36791 36.1348 7.6342 36.1728 7.99659 36.2289C8.35898 36.285 8.62526 36.329 8.79545 36.3611C8.96363 36.3951 9.19988 36.4391 9.50421 36.4932C9.80653 36.5493 10.0368 36.5973 10.195 36.6414C10.3531 36.6854 10.5393 36.7455 10.7576 36.8235C10.9758 36.9016 11.14 36.9837 11.2481 37.0718C11.3562 37.1599 11.4723 37.26 11.5925 37.3701C11.7126 37.4803 11.7987 37.6024 11.8467 37.7345C11.8948 37.8667 11.9188 38.0208 11.9188 38.197C11.9188 38.7256 11.6585 39.138 11.138 39.4364C10.6174 39.7347 9.90864 39.8828 9.01168 39.8828C7.29584 39.8828 6.21868 39.3022 5.78221 38.139C5.60602 37.6685 5.13752 37.3721 4.63298 37.3721H0C0.0961032 39.2441 0.951022 40.7157 2.56075 41.7849C4.17048 42.854 6.3328 43.3886 9.04772 43.3886C11.5664 43.3886 13.6086 42.9041 15.1703 41.935C16.732 40.966 17.5148 39.5785 17.5148 37.7706C17.5148 37.6885 17.5128 37.6084 17.5088 37.5283C17.9513 38.7897 18.6861 39.9009 19.7112 40.8599C21.5151 42.5457 23.9197 43.3886 26.9249 43.3886C29.1773 43.3886 31.1234 42.8941 32.8112 41.8349C34.3749 40.8539 35.4461 39.5064 35.9666 38.1209C36.2289 39.6406 37.0538 40.8639 38.4453 41.7849C40.055 42.854 42.2173 43.3886 44.9323 43.3886C47.451 43.3886 49.4932 42.9041 51.0548 41.935C52.3242 41.1482 53.079 40.0831 53.3153 38.7436C53.6777 39.9789 54.4545 40.994 55.6498 41.7869C57.2595 42.856 59.4218 43.3906 62.1367 43.3906C64.6555 43.3906 66.6976 42.9061 68.2593 41.937C69.4886 41.1742 70.2314 40.1531 70.4937 38.8717V43.3906H76.4161V35.9086C76.7084 37.8366 77.5914 39.4824 79.0689 40.8439C80.9089 42.5417 83.3075 43.3886 86.2627 43.3886C89.2178 43.3886 91.6104 42.5397 93.4384 40.8439C94.9039 39.4844 95.7829 37.8386 96.0732 35.9126V43.3906H101.996V34.0366C101.996 32.9794 102.298 32.1205 102.905 31.4578C103.509 30.7971 104.298 30.4667 105.267 30.4667C106.236 30.4667 106.933 30.737 107.429 31.2756C107.926 31.8162 108.174 32.549 108.174 33.4739V43.3886H114.097V32.3828C114.097 30.4667 113.52 28.9191 112.371 27.7398V27.7498ZM26.6707 29.3195C27.6397 29.3195 28.4446 29.6178 29.0872 30.2124C29.7279 30.8071 30.0983 31.612 30.1964 32.625H22.8566C23.293 30.4227 24.5644 29.3195 26.6727 29.3195H26.6707ZM89.1518 38.177C88.461 39.102 87.486 39.5645 86.2266 39.5645C84.9673 39.5645 83.9982 39.102 83.3195 38.177C82.6408 37.252 82.3024 36.0067 82.3024 34.443C82.3024 32.8793 82.6408 31.5999 83.3195 30.6749C83.9982 29.75 84.9673 29.2875 86.2266 29.2875C87.486 29.2875 88.461 29.756 89.1518 30.693C89.8425 31.63 90.1869 32.8793 90.1869 34.445C90.1869 36.0107 89.8425 37.254 89.1518 38.179V38.177Z" fill="var(--fill-0, #FFFAEE)" fill-opacity="0.2"/>
</g>
</svg>
