<svg preserveAspectRatio="xMidYMid meet" width="369" height="140" viewBox="0 0 369 140" fill="none" xmlns="http://www.w3.org/2000/svg">
<g id="Vector">
<path d="M9.48966 49.593C15.4264 55.0711 23.1654 57.8036 32.7003 57.8036C42.2351 57.8036 49.9548 55.0646 55.8527 49.593C60.801 45.0065 63.6628 39.4121 64.4638 32.823V77.8553H83.5659L83.5788 50.5491H83.8114C87.7972 55.4522 93.4625 57.907 100.814 57.907C108.708 57.907 115.039 55.2778 119.806 50.0129C124.025 45.3553 126.376 39.3088 126.86 31.8669C127.494 38.9535 130.355 44.8773 135.459 49.6382C141.279 55.0775 149.037 57.7972 158.734 57.7972C166.001 57.7972 172.28 56.2015 177.726 52.7842C183.327 49.27 186.97 44.2959 188.398 39.3282V56.2015H207.506V26.0207C207.506 22.6098 208.482 19.8385 210.439 17.7003C212.39 15.5685 214.935 14.5026 218.062 14.5026C221.189 14.5026 223.437 15.3747 225.039 17.1124C226.641 18.8566 227.442 21.2209 227.442 24.2054V56.1951H246.55V20.6848C246.55 14.5026 244.69 9.50904 240.982 5.70413C237.267 1.89922 232.171 0 225.685 0C217.946 0 211.77 3.02326 207.158 9.06331H206.809V6.77003C206.809 3.91473 204.496 1.60207 201.641 1.60207H188.404V27.8682C187.532 18.8437 184.096 11.8217 178.081 6.82817C172.61 2.28036 165.769 0 157.565 0C148.495 0 141.092 2.73902 135.349 8.21059C130.297 13.0297 127.468 18.9147 126.86 25.8785C126.357 18.8372 124.07 12.9264 119.994 8.15891C115.342 2.71964 109.109 0 101.292 0C93.4755 0 87.7326 2.73902 83.1201 8.21059H82.7713V5.47804C82.7713 3.33979 81.0336 1.60207 78.8953 1.60207H64.4832V25C63.6822 18.4044 60.8139 12.8101 55.8656 8.21705C49.9548 2.74548 42.2416 0.00645995 32.7067 0.00645995C23.1718 0.00645995 15.4328 2.74548 9.48966 8.21705C3.55297 13.6951 0.581391 20.5879 0.581391 28.9083C0.581391 37.2287 3.55297 44.1214 9.48966 49.5995V49.593ZM157.92 12.3773C161.047 12.3773 163.643 13.3398 165.717 15.2584C167.784 17.177 168.979 19.7739 169.296 23.0426H145.614C147.022 15.9367 151.124 12.3773 157.926 12.3773H157.92ZM188.411 33.385V38.4496H172.287C170.969 38.4496 169.735 39.115 169.031 40.2326C167.235 43.062 164.386 45.2907 158.979 45.3295C155.149 45.3553 152.099 44.2829 149.832 42.1835C147.565 40.084 146.118 37.1512 145.491 33.385H188.411ZM86.2855 18.2946C88.4755 15.4134 91.5633 13.9729 95.5491 13.9729C99.5349 13.9729 102.545 15.3618 104.574 18.1331C106.609 20.9044 107.623 24.7093 107.623 29.5413C107.623 34.3734 106.589 37.8036 104.516 40.4716C102.442 43.1395 99.5736 44.4703 95.8979 44.4703C91.8346 44.4703 88.6693 43.1008 86.4018 40.3618C84.1344 37.6227 83.0039 34.0181 83.0039 29.5413C83.0039 25.0646 84.0956 21.1692 86.2855 18.2881V18.2946ZM23.2106 16.7506C25.4005 13.7661 28.5271 12.2739 32.5904 12.2739C36.6537 12.2739 39.7997 13.7855 42.0284 16.8088C44.2571 19.832 45.3682 23.863 45.3682 28.9147C45.3682 33.9664 44.2571 37.978 42.0284 40.9625C39.7997 43.947 36.6537 45.4393 32.5904 45.4393C28.5271 45.4393 25.4005 43.947 23.2106 40.9625C21.0207 37.978 19.9289 33.9599 19.9289 28.9147C19.9289 23.8695 21.0207 19.7416 23.2106 16.7571V16.7506Z" fill="var(--fill-0, #FFFAEE)"/>
<path d="M246.55 63.7792H227.442V77.8555H246.55V63.7792Z" fill="var(--fill-0, #FFFAEE)"/>
<path d="M362.565 89.5349C358.85 85.73 353.753 83.8307 347.267 83.8307C339.528 83.8307 333.353 86.854 328.74 92.8941H328.392V89.3088C328.392 87.1705 326.654 85.4328 324.516 85.4328H309.987V106.357C309.05 100.142 306.221 94.832 301.486 90.4457C295.581 84.9742 287.868 82.2351 278.333 82.2351C268.798 82.2351 261.059 84.9742 255.123 90.4457C250.355 94.8385 247.506 100.149 246.563 106.37V89.3088C246.563 87.1705 244.826 85.4328 242.687 85.4328H227.455V118.185C227.209 116.97 226.841 115.846 226.344 114.813C225.368 112.784 224.212 111.189 222.888 110.013C221.557 108.837 219.742 107.81 217.435 106.919C215.129 106.034 213.114 105.407 211.395 105.052C209.677 104.696 207.487 104.302 204.832 103.876C204.205 103.805 203.385 103.682 202.371 103.501C201.357 103.327 200.556 103.178 199.968 103.075C199.38 102.972 198.637 102.842 197.739 102.7C196.841 102.558 196.137 102.416 195.627 102.274C195.116 102.132 194.548 101.951 193.928 101.738C193.301 101.525 192.817 101.311 192.461 101.098C192.112 100.885 191.757 100.64 191.408 100.349C191.059 100.065 190.801 99.7481 190.646 99.3863C190.491 99.031 190.413 98.637 190.413 98.2106C190.413 96.5762 191.176 95.3295 192.7 94.4767C194.225 93.624 196.234 93.1977 198.74 93.1977C203.366 93.1977 206.344 94.5607 207.668 97.2933C208.333 98.6628 209.658 99.5995 211.182 99.5995H225.943C225.472 94.1279 222.933 89.845 218.32 86.7506C213.708 83.6563 207.222 82.1124 198.857 82.1124C191.428 82.1124 185.258 83.6434 180.329 86.699C175.407 89.7545 172.946 94.0568 172.946 99.5995C172.946 102.087 173.372 104.276 174.238 106.156C175.097 108.043 176.176 109.535 177.461 110.633C178.753 111.738 180.433 112.713 182.5 113.566C184.574 114.419 186.466 115.045 188.185 115.433C189.903 115.827 192.016 116.195 194.516 116.55C195.065 116.621 195.924 116.744 197.093 116.925C198.262 117.106 199.121 117.248 199.671 117.351C200.213 117.461 200.975 117.603 201.957 117.778C202.933 117.959 203.676 118.114 204.186 118.256C204.696 118.398 205.297 118.592 206.001 118.844C206.705 119.096 207.235 119.36 207.584 119.645C207.933 119.929 208.308 120.252 208.695 120.607C209.083 120.963 209.36 121.357 209.516 121.783C209.671 122.209 209.748 122.707 209.748 123.275C209.748 124.981 208.908 126.311 207.229 127.274C205.549 128.236 203.262 128.714 200.368 128.714C193.721 128.714 190.052 126.014 189.348 120.607H172.248C172.112 118.437 171.641 116.492 170.827 114.793C169.851 112.765 168.695 111.169 167.371 109.994C166.04 108.818 164.225 107.791 161.919 106.899C159.612 106.014 157.597 105.388 155.879 105.032C154.16 104.677 151.97 104.283 149.315 103.857C148.689 103.786 147.868 103.663 146.854 103.482C145.84 103.307 145.039 103.159 144.451 103.056C143.863 102.946 143.12 102.823 142.222 102.681C141.324 102.539 140.62 102.397 140.11 102.255C139.6 102.112 139.037 101.932 138.411 101.718C137.784 101.505 137.3 101.292 136.944 101.079C136.596 100.866 136.24 100.62 135.891 100.329C135.543 100.045 135.284 99.7287 135.129 99.3669C134.974 99.0116 134.897 98.6176 134.897 98.1912C134.897 96.5568 135.659 95.3101 137.183 94.4574C138.708 93.6047 140.717 93.1783 143.224 93.1783C147.849 93.1783 150.827 94.5413 152.151 97.2739C152.817 98.6434 154.141 99.5801 155.665 99.5801H170.426C169.955 94.1085 167.416 89.8256 162.804 86.7313C158.191 83.6369 151.705 82.093 143.34 82.093C135.911 82.093 129.742 83.624 124.819 86.6796C119.897 89.7351 117.435 94.0375 117.435 99.5801C117.435 102.067 117.862 104.257 118.727 106.137C119.587 108.023 120.659 109.516 121.951 110.614C123.243 111.718 124.922 112.694 126.99 113.547C129.057 114.399 130.956 115.026 132.674 115.413C134.393 115.807 136.505 116.176 139.005 116.531C139.548 116.602 140.413 116.725 141.583 116.906C142.758 117.087 143.618 117.229 144.16 117.332C144.703 117.442 145.465 117.584 146.447 117.758C147.423 117.939 148.165 118.094 148.676 118.236C149.186 118.379 149.787 118.572 150.491 118.824C151.195 119.076 151.725 119.341 152.074 119.625C152.423 119.91 152.797 120.233 153.185 120.588C153.572 120.943 153.85 121.337 154.005 121.764C154.16 122.19 154.238 122.687 154.238 123.256C154.238 124.961 153.398 126.292 151.718 127.255C150.039 128.217 147.752 128.695 144.858 128.695C139.322 128.695 135.846 126.822 134.438 123.068C133.87 121.55 132.358 120.594 130.73 120.594H115.782C115.782 120.594 115.782 120.627 115.782 120.646H100.42C99.1021 120.646 97.8682 121.311 97.1641 122.429C95.3682 125.258 92.5194 127.481 87.1124 127.526C83.2817 127.552 80.2326 126.479 77.9651 124.38C75.6977 122.28 74.2507 119.348 73.624 115.581H116.77C116.925 103.85 113.411 95 106.221 89.031C100.749 84.4832 93.9083 82.2028 85.7041 82.2028C76.6344 82.2028 69.2313 84.9419 63.4884 90.4134C57.7455 95.8915 54.8708 102.745 54.8708 110.995C54.8708 112.332 54.9548 113.624 55.0969 114.89C55.0775 114.858 55.0646 114.819 55.0517 114.78C54.0762 112.752 52.9199 111.156 51.5956 109.981C50.2649 108.805 48.4496 107.778 46.1434 106.886C43.8372 106.001 41.8217 105.375 40.1034 105.019C38.385 104.664 36.1951 104.27 33.5401 103.844C32.9134 103.773 32.093 103.65 31.0788 103.469C30.0646 103.295 29.2636 103.146 28.6757 103.043C28.0879 102.939 27.345 102.81 26.447 102.668C25.5491 102.526 24.845 102.384 24.3346 102.242C23.8243 102.099 23.2558 101.919 22.6357 101.705C22.009 101.492 21.5245 101.279 21.1693 101.066C20.8204 100.853 20.4651 100.607 20.1163 100.317C19.7674 100.032 19.509 99.7158 19.354 99.354C19.199 98.9987 19.1214 98.6047 19.1214 98.1783C19.1214 96.5439 19.8837 95.2972 21.4083 94.4444C22.9328 93.5917 24.9419 93.1654 27.4483 93.1654C32.0736 93.1654 35.0517 94.5284 36.376 97.261C37.0413 98.6305 38.3656 99.5672 39.8902 99.5672H54.6512C54.1796 94.0956 51.6408 89.8127 47.0284 86.7183C42.416 83.624 35.9302 82.0801 27.5646 82.0801C20.1357 82.0801 13.9664 83.6111 9.03747 86.6667C4.11499 89.7222 1.65375 94.0245 1.65375 99.5672C1.65375 102.054 2.0801 104.244 2.94574 106.124C3.80491 108.01 4.88372 109.503 6.16925 110.601C7.46124 111.705 9.14083 112.681 11.208 113.534C13.2817 114.386 15.1744 115.013 16.8928 115.401C18.6111 115.795 20.7235 116.163 23.2235 116.518C23.7726 116.589 24.6318 116.712 25.801 116.893C26.9703 117.074 27.8295 117.216 28.3786 117.319C28.9212 117.429 29.6835 117.571 30.6654 117.745C31.6408 117.926 32.3837 118.081 32.8941 118.224C33.4044 118.366 34.0052 118.559 34.7093 118.811C35.4134 119.063 35.9432 119.328 36.292 119.612C36.6408 119.897 37.0155 120.22 37.4031 120.575C37.7907 120.93 38.0685 121.324 38.2235 121.751C38.3786 122.177 38.4561 122.674 38.4561 123.243C38.4561 124.948 37.6163 126.279 35.9367 127.242C34.2571 128.204 31.9703 128.682 29.0762 128.682C23.5401 128.682 20.0646 126.809 18.6563 123.056C18.0879 121.537 16.5762 120.581 14.9483 120.581H0C0.310078 126.621 3.06848 131.37 8.26227 134.819C13.4561 138.269 20.4328 139.994 29.1925 139.994C37.3191 139.994 43.9083 138.43 48.947 135.304C53.9858 132.177 56.5116 127.7 56.5116 121.867C56.5116 121.602 56.5052 121.344 56.4923 121.085C57.9199 125.155 60.2907 128.74 63.5982 131.835C69.4186 137.274 77.177 139.994 86.8734 139.994C94.1408 139.994 100.42 138.398 105.866 134.981C110.911 131.815 114.367 127.468 116.047 122.997C116.893 127.901 119.554 131.848 124.044 134.819C129.238 138.269 136.214 139.994 144.974 139.994C153.101 139.994 159.69 138.43 164.729 135.304C168.824 132.765 171.26 129.328 172.022 125.006C173.191 128.992 175.698 132.267 179.554 134.826C184.748 138.275 191.725 140 200.485 140C208.611 140 215.2 138.437 220.239 135.31C224.205 132.849 226.602 129.554 227.448 125.42V140H246.557V115.859C247.5 122.08 250.349 127.39 255.116 131.783C261.053 137.261 268.792 139.994 278.327 139.994C287.862 139.994 295.581 137.255 301.479 131.783C306.208 127.397 309.044 122.087 309.981 115.872V140H329.089V109.819C329.089 106.408 330.065 103.637 332.022 101.499C333.973 99.3669 336.518 98.301 339.645 98.301C342.771 98.301 345.019 99.1731 346.621 100.911C348.224 102.655 349.025 105.019 349.025 108.004V139.994H368.133V104.483C368.133 98.301 366.273 93.3075 362.565 89.5026V89.5349ZM86.053 94.5995C89.1796 94.5995 91.7765 95.562 93.8501 97.4806C95.9173 99.3992 97.1124 101.996 97.429 105.265H73.7468C75.1551 98.1589 79.2571 94.5995 86.0594 94.5995H86.053ZM287.649 123.178C285.42 126.163 282.274 127.655 278.211 127.655C274.147 127.655 271.021 126.163 268.831 123.178C266.641 120.194 265.549 116.176 265.549 111.13C265.549 106.085 266.641 101.957 268.831 98.9729C271.021 95.9884 274.147 94.4961 278.211 94.4961C282.274 94.4961 285.42 96.0077 287.649 99.031C289.877 102.054 290.988 106.085 290.988 111.137C290.988 116.189 289.877 120.2 287.649 123.185V123.178Z" fill="var(--fill-0, #FFFAEE)"/>
</g>
</svg>
